<svg xmlns="http://www.w3.org/2000/svg" viewBox="0 0 900 700" role="img" aria-labelledby="t d"><title id="t">Fluxknight inbound workflow</title><desc id="d">Inbound calls, WhatsApp, website chat, social media, email and other enquiries converge into Fluxknight AI, which identifies the best place to automate first.</desc><defs><linearGradient id="bg" x1="0" y1="0" x2="1" y2="1"><stop stop-color="#160a2b"/><stop offset="1" stop-color="#08030f"/></linearGradient><linearGradient id="card" x1="0" y1="0" x2="1" y2="1"><stop stop-color="#21103d"/><stop offset="1" stop-color="#100720"/></linearGradient><linearGradient id="ai" x1="0" y1="0" x2="1" y2="1"><stop stop-color="#35145f"/><stop offset="1" stop-color="#16092d"/></linearGradient><filter id="glow"><feGaussianBlur stdDeviation="4" result="b"/><feMerge><feMergeNode in="b"/><feMergeNode in="SourceGraphic"/></feMerge></filter></defs><rect width="900" height="700" rx="28" fill="url(#bg)" opacity=".94"/><g fill="none" stroke="#a855f7" stroke-width="2" opacity=".72"><path d="M145 178C145 250 285 255 365 320"/><path d="M450 178V315"/><path d="M755 178C755 250 615 255 535 320"/><path d="M145 340C145 385 280 375 355 400"/><path d="M450 340V400"/><path d="M755 340C755 385 620 375 545 400"/></g><g font-family="Arial,Helvetica,sans-serif"><g fill="url(#card)" stroke="#7138b9"><rect x="35" y="38" width="220" height="140" rx="20"/><rect x="340" y="38" width="220" height="140" rx="20"/><rect x="645" y="38" width="220" height="140" rx="20"/><rect x="35" y="200" width="220" height="140" rx="20"/><rect x="340" y="200" width="220" height="140" rx="20"/><rect x="645" y="200" width="220" height="140" rx="20"/></g><g text-anchor="middle"><g fill="#2b1250" stroke="#9b5cf6"><circle cx="145" cy="82" r="27"/><circle cx="450" cy="82" r="27"/><circle cx="755" cy="82" r="27"/><circle cx="145" cy="244" r="27"/><circle cx="450" cy="244" r="27"/><circle cx="755" cy="244" r="27"/></g><g fill="none" stroke="#e2c8ff" stroke-width="3" stroke-linecap="round" stroke-linejoin="round"><path d="M132 68c2 10 8 20 18 28l8-8-8-7-5 5c-4-3-7-7-9-11l5-5-7-8z"/><path d="M440 70h20v16h-11l-7 6v-6h-2z"/><path d="M745 70h20v15h-13l-6 6v-6h-1z"/><path d="M133 238h24v16h-24zM133 238l12 9 12-9"/><circle cx="450" cy="242" r="10"/><path d="M432 261c4-13 32-13 36 0"/><path d="M744 234h22v18h-14l-7 6v-6h-1zM751 229h18v15"/></g><g fill="#fff" font-weight="800" font-size="19"><text x="145" y="127">Inbound Calls</text><text x="450" y="127">WhatsApp</text><text x="755" y="127">Website Chat</text><text x="145" y="289">Email</text><text x="450" y="289">Social Media</text><text x="755" y="289">Other Enquiries</text></g><g fill="#b8a7ca" font-size="14"><text x="145" y="151">Calls &amp; voice enquiries</text><text x="450" y="151">Messages &amp; leads</text><text x="755" y="151">Web visitors &amp; support</text><text x="145" y="313">Inbox &amp; campaigns</text><text x="450" y="313">Instagram &amp; Facebook</text><text x="755" y="313">Forms, referrals &amp; more</text></g></g><rect x="235" y="395" width="430" height="118" rx="22" fill="url(#ai)" stroke="#a855f7" stroke-width="2" filter="url(#glow)"/><text x="450" y="438" fill="#fff" font-size="25" font-weight="800" text-anchor="middle">FLUXKNIGHT <tspan fill="#b55cff">AI</tspan></text><text x="450" y="469" fill="#c8b6d8" font-size="16" text-anchor="middle">Receives, understands and routes every enquiry</text><text x="450" y="494" fill="#a991bc" font-size="14" text-anchor="middle">Qualifies · follows up · books · updates · hands off</text><path d="M450 513v40" stroke="#a855f7" stroke-width="2"/><rect x="360" y="540" width="180" height="36" rx="18" fill="#18082b" stroke="#8b5cf6"/><text x="450" y="563" fill="#c084fc" font-size="13" font-weight="800" letter-spacing="2" text-anchor="middle">RECOMMENDED</text><path d="M450 576v22" stroke="#a855f7" stroke-width="2"/><rect x="165" y="598" width="570" height="76" rx="19" fill="#281047" stroke="#a855f7" stroke-width="2" filter="url(#glow)"/><text x="450" y="630" fill="#fff" font-size="21" font-weight="800" text-anchor="middle">Best place to automate first</text><text x="450" y="656" fill="#c0afcf" font-size="15" text-anchor="middle">Less manual work. Faster response. Better follow-through.</text></g></svg>