<svg width="1600" height="1000" viewBox="0 0 1600 1000" fill="none" xmlns="http://www.w3.org/2000/svg"><defs><linearGradient id="bg" x1="0" y1="0" x2="1600" y2="1000" gradientUnits="userSpaceOnUse"><stop stop-color="#17111F"/><stop offset=".5" stop-color="#0A0910"/><stop offset="1" stop-color="#050505"/></linearGradient><radialGradient id="glow" cx="0" cy="0" r="1" gradientUnits="userSpaceOnUse" gradientTransform="translate(1050 230) rotate(145) scale(700 520)"><stop stop-color="#A855F7" stop-opacity=".28"/><stop offset="1" stop-color="#A855F7" stop-opacity="0"/></radialGradient><filter id="shadow" x="-30%" y="-30%" width="160%" height="160%"><feDropShadow dx="0" dy="28" stdDeviation="34" flood-color="#000" flood-opacity=".5"/></filter></defs><rect width="1600" height="1000" fill="url(#bg)"/><rect width="1600" height="1000" fill="url(#glow)"/><g opacity=".18"><path d="M0 800H1600M0 680H1600M0 560H1600M0 440H1600M0 320H1600" stroke="#B68AF1"/><path d="M280 0V1000M520 0V1000M760 0V1000M1000 0V1000M1240 0V1000" stroke="#B68AF1"/></g><g filter="url(#shadow)"><rect x="170" y="155" width="1260" height="690" rx="36" fill="#0B0A0E" stroke="#2B2632"/><rect x="170" y="155" width="1260" height="74" rx="36" fill="#121016"/><circle cx="222" cy="192" r="8" fill="#7044A6"/><circle cx="250" cy="192" r="8" fill="#3E3946"/><rect x="296" y="181" width="182" height="22" rx="11" fill="#24202A"/><rect x="1115" y="179" width="125" height="26" rx="13" fill="#1E1925"/><circle cx="1278" cy="192" r="17" fill="#8B5CF6"/><rect x="208" y="266" width="248" height="532" rx="24" fill="#0E0C12" stroke="#232029"/><text x="242" y="318" fill="#F9F7FC" font-family="Arial" font-size="26" font-weight="700">Guest desk</text><rect x="236" y="354" width="190" height="64" rx="16" fill="#17131D"/><circle cx="266" cy="386" r="15" fill="#9B6CF6"/><rect x="292" y="372" width="103" height="10" rx="5" fill="#E8E2EF"/><rect x="292" y="392" width="74" height="8" rx="4" fill="#716B77"/><rect x="236" y="434" width="190" height="64" rx="16" fill="#131117"/><circle cx="266" cy="466" r="15" fill="#4A4450"/><rect x="292" y="452" width="90" height="10" rx="5" fill="#D8D2DF"/><rect x="292" y="472" width="60" height="8" rx="4" fill="#625D68"/><rect x="236" y="514" width="190" height="64" rx="16" fill="#131117"/><circle cx="266" cy="546" r="15" fill="#4A4450"/><rect x="292" y="532" width="111" height="10" rx="5" fill="#D8D2DF"/><rect x="292" y="552" width="78" height="8" rx="4" fill="#625D68"/><rect x="494" y="266" width="620" height="532" rx="24" fill="#100D14" stroke="#27212F"/><text x="530" y="320" fill="#F9F7FC" font-family="Arial" font-size="28" font-weight="700">Booking conversation</text><rect x="530" y="356" width="386" height="78" rx="18" fill="#17131D"/><rect x="554" y="378" width="292" height="10" rx="5" fill="#88818D"/><rect x="554" y="399" width="232" height="9" rx="4.5" fill="#5E5963"/><rect x="676" y="460" width="396" height="110" rx="20" fill="#241733" stroke="#5F3C83"/><circle cx="711" cy="498" r="18" fill="#9B6CF6"/><text x="744" y="493" fill="#F1EBF7" font-family="Arial" font-size="17" font-weight="700">Fluxknight</text><rect x="744" y="510" width="286" height="9" rx="4.5" fill="#C8BDD3"/><rect x="744" y="532" width="235" height="9" rx="4.5" fill="#8F839A"/><rect x="530" y="606" width="258" height="62" rx="17" fill="#17131D"/><rect x="554" y="627" width="173" height="9" rx="4.5" fill="#837C88"/><rect x="822" y="610" width="250" height="78" rx="18" fill="#151019" stroke="#33263F"/><text x="846" y="641" fill="#CBBED7" font-family="Arial" font-size="15">Inspection booked</text><rect x="846" y="656" width="126" height="8" rx="4" fill="#5E5965"/><rect x="1150" y="266" width="242" height="252" rx="24" fill="#100D14" stroke="#27212F"/><text x="1180" y="310" fill="#AAA2B0" font-family="Arial" font-size="15">TODAY</text><text x="1180" y="365" fill="#FFF" font-family="Arial" font-size="45" font-weight="700">28</text><text x="1180" y="395" fill="#88818D" font-family="Arial" font-size="15">active enquiries</text><rect x="1180" y="432" width="168" height="10" rx="5" fill="#211A29"/><rect x="1180" y="432" width="126" height="10" rx="5" fill="#8B5CF6"/><rect x="1150" y="546" width="242" height="252" rx="24" fill="#100D14" stroke="#27212F"/><text x="1180" y="590" fill="#AAA2B0" font-family="Arial" font-size="15">AUTOMATION</text><circle cx="1210" cy="644" r="20" fill="#153326"/><circle cx="1210" cy="644" r="7" fill="#62D49A"/><text x="1245" y="650" fill="#E9E4ED" font-family="Arial" font-size="18" font-weight="700">Live</text><rect x="1180" y="686" width="166" height="54" rx="15" fill="#18131D"/><text x="1200" y="718" fill="#BBAEC7" font-family="Arial" font-size="14">Replies under 1 min</text></g></svg>